<?xml version="1.0" encoding="utf-8"?>
<!-- Generator: Adobe Illustrator 23.0.1, SVG Export Plug-In . SVG Version: 6.00 Build 0)  -->
<svg version="1.1" xmlns="http://www.w3.org/2000/svg" xmlns:xlink="http://www.w3.org/1999/xlink"
	 x="0px" y="0px" viewBox="0 0 841 448">
<g>
	<path d="M21.49,210.99c0-0.33,0.05-0.94,0.05-1.28c0.14-0.99,0.14-1.09,0.23-1.81c1.38-10.61,2.27-21.31,4.2-31.82
		c1.59-8.67,3.92-17.28,6.8-25.61c3.98-11.5,8.7-22.75,14.84-33.33c5.84-10.07,11.98-19.93,19.42-28.93
		c8.69-10.53,17.76-20.72,28.52-29.19c8.03-6.33,16.12-12.66,24.66-18.25c6.45-4.22,13.62-7.37,20.56-10.8
		c4.25-2.1,8.56-4.18,13.04-5.67c9.59-3.2,19.18-6.57,29-8.85c9.74-2.26,19.73-3.73,29.7-4.72c19.25-1.93,38.49-0.78,57.4,3.06
		c11.25,2.28,22.24,6,33.2,9.51c6.38,2.05,12.59,4.75,18.69,7.56c4.02,1.85,7.66,4.48,11.55,6.64
		c11.93,6.63,22.65,15.01,33.36,23.36c3.56,2.78,6.51,6.35,9.73,9.57c4.63,4.62,8.78,9.58,11.3,15.72c0.5,1.21,1.11,2.38,1.61,3.59
		c0.29,0.72,0.56,1.49,0.65,2.25c0.14,1.32,0.1,2.66,0.18,3.99c0.38,5.82,0.49,11.61-2.59,16.87c-1.91,3.25-3.62,6.73-6.07,9.54
		c-6.93,7.92-15.83,11.91-26.39,12.37c-9.88,0.43-18.18-3.44-25.74-9.22c-2.83-2.16-5.13-5.01-7.78-7.42
		c-7.51-6.86-16.47-11.36-25.63-15.48c-9.1-4.09-18.62-6.81-28.43-8.62c-10.31-1.9-20.67-2.15-31.09-1.53
		c-10.18,0.61-20.09,2.63-29.75,5.82c-9.33,3.08-18.4,6.82-26.48,12.56c-6.2,4.4-12.64,8.53-18.38,13.48
		c-5.16,4.44-9.75,9.62-14.13,14.86c-3.64,4.35-6.77,9.16-9.82,13.96c-6.19,9.75-10.5,20.37-13.51,31.48
		c-2.3,8.49-3.91,17.03-3.7,26.01c0.1,4.42-0.69,8.97-0.23,13.49c0.64,6.3,0.91,12.67,2,18.89c1.86,10.65,5.55,20.76,10.37,30.45
		c5.31,10.68,11.92,20.47,20.06,29.19c8.1,8.67,16.77,16.61,27.43,22.13c4.58,2.37,8.8,5.5,13.5,7.55
		c6.34,2.76,12.91,5.08,19.54,7.07c9.58,2.88,19.47,3.94,29.46,4.21c10.12,0.28,20.07-0.84,29.97-2.87
		c11.4-2.33,22.13-6.52,32.27-12c6.71-3.62,13.07-8.01,19.18-12.59c6.32-4.74,10.84-11.05,13.31-18.69
		c3.96-12.27,1.95-23.7-4.86-34.41c-1.31-2.06-2.9-4-4.64-5.71c-10.08-9.96-22.15-13.49-36.06-10.99
		c-7.27,1.31-13.34,4.94-18.94,9.54c-1.19,0.97-2.28,2.18-3.64,2.8c-2.53,1.16-5.17,2.24-7.87,2.89c-4.82,1.15-9.7,2.63-14.6,2.79
		c-16.28,0.51-29.31-6.26-38.94-19.26c-7.87-10.61-10.24-22.71-7.95-35.61c1.86-10.46,6.99-19.26,14.99-26.27
		c10.97-9.61,23.88-13.23,38.14-10.93c8.54,1.38,16.28,4.83,23.31,10.41c9.22,7.32,20.19,9.38,31.76,6.91
		c8.64-1.85,16.13-5.79,21.34-13.26c2.15-3.08,4.59-6.02,6.32-9.32c1.02-1.96,1.8-2.46,3.89-1.96c8.27,1.97,16.62,2.12,24.98,0.58
		c13.11-2.42,23.69-9.51,33.29-18.31c7.4-6.79,13.67-14.58,19.35-22.84c0.82-1.19,1.72-2.24,2.5-3.47c0.93-1.11,1.42-1.84,2.2-2.78
		c5.66-6.88,11.27-13.82,16.87-20.75c1.81-2.24,3.4-4.68,5.37-6.76c2.74-2.89,5.79-5.49,8.63-8.28
		c9.16-8.98,18.51-17.77,28.97-25.22c8.94-6.37,17.96-12.65,27.26-18.47c5.48-3.42,11.52-5.97,17.4-8.71
		c5.1-2.37,10.2-4.84,15.52-6.6c9.88-3.28,19.8-6.64,29.94-8.9c9.51-2.12,19.3-3.5,29.03-4.05c10.21-0.58,20.56-0.36,30.75,0.56
		c9.98,0.9,19.92,2.74,29.73,4.88c16.01,3.48,31.23,9.32,45.72,16.97c4.82,2.54,9.67,5.06,14.28,7.95
		c10.49,6.58,20.5,13.85,29.69,22.18c11.21,10.17,21.6,21.14,30.13,33.66c5.83,8.55,11.23,17.44,16.18,26.53
		c5.32,9.77,9.8,20,12.77,30.79c2.43,8.81,5.21,17.58,6.87,26.55c1.62,8.73,1.99,17.68,2.96,26.53c0.11,0.99,0.2,1.64,0.26,2.7
		c0,0.33,0.02,0.81,0.02,1.14c0,0.85-0.03,1.56-0.03,2.3c0.14,13.09-0.29,26.18-2.96,39.01c-2.5,12.02-5.44,23.97-8.74,35.8
		c-1.47,5.27-4.1,10.26-6.6,15.18c-4.63,9.12-9.26,18.25-14.44,27.06c-3.23,5.49-7.29,10.53-11.3,15.51
		c-4.5,5.58-9.13,11.09-14.12,16.22c-5.25,5.4-10.86,10.47-16.53,15.43c-6.09,5.33-12.57,10.18-19.44,14.48
		c-3.38,2.11-6.65,4.44-10.2,6.22c-9.6,4.8-19.16,9.75-29.04,13.89c-10.06,4.21-20.49,7.49-31.28,9.48
		c-10.25,1.89-20.49,3.85-30.94,4.06c-9.29,0.19-18.62,0.48-27.88-0.12c-13.46-0.88-26.86-2.67-39.79-6.82
		c-6.82-2.19-13.62-4.44-20.31-6.99c-27.43-10.42-51.24-26.62-72.44-46.63c-12.79-12.07-18.39-27.01-13.84-44.61
		c4.38-16.92,14.76-28.88,31.57-34.08c17.12-5.3,33.11-2.28,47.06,9.35c3.18,2.65,5.93,5.81,8.84,8.76
		c4.03,4.08,7.68,8.61,12.09,12.22c15.2,12.45,32.76,20.14,51.88,24.29c9.03,1.96,18.18,2.75,27.45,2.72
		c11.09-0.04,21.9-1.63,32.58-4.45c10.43-2.75,20.13-7.25,29.45-12.54c4.62-2.62,9.12-5.56,13.31-8.82c3.46-2.68,6.8-5.74,9.42-9.21
		c2.49-3.3,4.41-7.19,5.83-11.1c2.97-8.17,3.1-16.64-0.15-24.68c-0.77-1.91-1.26-4.01-2.23-5.87
		c-8.43-16.26-25.79-23.72-42.42-20.69c-7.52,1.37-13.7,5.34-19.78,9.53c-9.99,6.89-20.9,9.84-32.97,8.21
		c-13.72-1.85-24.53-8.4-32.31-19.92c-11.66-17.26-10.64-38.91,2.28-55.31c11.29-14.32,30.44-20.47,48.26-15.46
		c7.29,2.05,13.69,5.8,19.89,10.31c9.03,6.57,19.49,8.2,30.51,5.97c7.98-1.61,14.51-5.74,20.12-11.45c4.69-4.77,7.7-10.58,9.53-16.9
		c3.27-11.34,1.3-22.15-5.03-31.89c-2.69-4.13-6.35-7.92-10.31-10.86c-6.43-4.77-13.29-9.06-20.31-12.91
		c-9.15-5.01-19.06-8.22-29.25-10.54c-9.76-2.22-19.66-3.14-29.63-2.99c-10.22,0.15-20.23,1.87-30.08,4.6
		c-11.48,3.19-22.16,8.21-32.42,14.16c-9.7,5.62-18.67,12.31-27.1,19.68c-7.24,6.33-14.7,12.42-20.57,20.21
		c-2.64,3.5-6.3,6.22-9.13,9.6c-6.39,7.62-12.64,15.37-18.79,23.18c-3.93,4.99-7.63,10.16-11.34,15.32
		c-3.33,4.62-6.7,9.23-9.74,14.04c-6.83,10.84-13.75,21.64-20.06,32.78c-5.11,9.01-9.46,18.46-14,27.78
		c-5.16,10.58-9.89,21.37-15.31,31.81c-4.96,9.55-10.42,18.85-15.97,28.08c-4.47,7.42-9.47,14.51-15.32,20.95
		c-2.98,3.28-5.85,6.68-9.02,9.78c-5.76,5.64-11.46,11.39-17.64,16.55c-4.95,4.13-10.46,7.61-15.91,11.1
		c-5.78,3.7-11.55,7.53-17.72,10.48c-9.6,4.6-19.37,8.96-29.37,12.56c-8.76,3.15-17.83,5.85-26.99,7.43
		c-11.08,1.92-22.38,2.84-33.63,3.46c-8.77,0.48-17.65,0.37-26.39-0.47c-8.9-0.86-17.68-2.94-26.51-4.46
		c-1.57-0.27-3.2-0.26-4.73-0.65c-1.66-0.43-3.24-1.2-4.86-1.78c-8.75-3.1-17.62-5.9-26.22-9.35
		c-13.37-5.38-25.94-12.37-37.51-20.97c-7.51-5.57-14.74-11.56-21.8-17.7c-4.59-3.99-8.82-8.44-12.9-12.98
		c-5.21-5.79-10.29-11.71-15.04-17.86c-2.85-3.69-5.21-7.82-7.4-11.96c-5.27-9.96-10.52-19.95-15.38-30.12
		c-2.82-5.9-5.08-12.1-7.2-18.3c-1.31-3.84-2.02-7.9-2.78-11.9c-1.69-8.91-3.75-17.79-4.71-26.78c-0.96-8.91-0.75-17.95-1.1-26.93
		C21.59,212.62,21.49,211.84,21.49,210.99z"/>
</g>
</svg>
